# xmcd
#
# Track frame offsets: 
#        150
#        9868
#        21966
#        31450
#        43644
#        56062
#        67247
#        80236
#        93363
#        105191
#        116270
#        128282
#        141035
#        152034
#        162034
#        173942
#        186112
#        198185
#        210616
#
# Disc length: 2999 seconds
#
# Revision: 0
# Processed by: cddbd v1.5.2PL0 Copyright (c) Steve Scherf et al.
# Submitted via: ExactAudioCopy v1.1
#
DISCID=f20bb513
DTITLE=Laura Lee - Love More Than Pride +8
DYEAR=1971
DGENRE=R&B
TTITLE0=Mama's Got A Good Thing
TTITLE1=Another Man's Woman
TTITLE2=It Ain't What You Do (But How You Do It)
TTITLE3=She Don't Love You
TTITLE4=It's All Wrong, But It's Alright
TTITLE5=I Need To Belong To Someone
TTITLE6=Dirty Old Man (mono)
TTITLE7=But You Know I Love You
TTITLE8=Thats' How It Is
TTITLE9=It's How You Make It Good
TTITLE10=Love More Than Pride
TTITLE11=Uptight Good Woman (mono)
TTITLE12=Wanted: Lover, No Expereience Necessary (mono)
TTITLE13=As Long As I Got You (mono)
TTITLE14=A Man With Some Backbone (mono)
TTITLE15=She Will Break Your Heart
TTITLE16=Hang It Up
TTITLE17=Sure As Sin (mono)
TTITLE18=Dirty Old Man (extended)
EXTD=
EXTT0=
EXTT1=
EXTT2=
EXTT3=
EXTT4=
EXTT5=
EXTT6=
EXTT7=
EXTT8=
EXTT9=
EXTT10=
EXTT11=
EXTT12=
EXTT13=
EXTT14=
EXTT15=
EXTT16=
EXTT17=
EXTT18=
PLAYORDER=
